<svg xmlns="http://www.w3.org/2000/svg" id="Filled" height="48" viewBox="0 0 512 512" width="48">
    <path d="m120 40h304v400h-304z" fill="#e2d2c2" />
    <path d="m88 24h304v416h-304z" fill="#fae8d8" />
    <path d="m120 56h240v192h-240z" fill="#a4d4f4" />
    <path d="m416 488h-320a16 16 0 0 1 -16-16v-176a16 16 0 0 1 16-16h160.506a16 16 0 0 1 12.292 5.757l30.4 36.486a16 16 0 0 0 12.296 5.757h104.506a16 16 0 0 1 16 16v128a16 16 0 0 1 -16 16z" fill="#fcb442" />
    <g fill="#fc8d36">
        <path d="m152 88h32v32h-32z" />
        <path d="m152 184h32v32h-32z" />
        <path d="m296 88h32v32h-32z" />
        <path d="m296 184h32v32h-32z" />
    </g>
    <path d="m392 16h-304a8 8 0 0 0 -8 8v254.131a23.943 23.943 0 0 0 -8 17.869v176a24.028 24.028 0 0 0 24 24h320a24.028 24.028 0 0 0 24-24v-128a23.943 23.943 0 0 0 -8-17.869v-286.131a8 8 0 0 0 -8-8h-24v-8a8 8 0 0 0 -8-8zm-296 16h288v288h-72.506a7.978 7.978 0 0 1 -6.146-2.878l-30.405-36.486a23.932 23.932 0 0 0 -18.437-8.636h-160.506zm328 440a8.009 8.009 0 0 1 -8 8h-320a8.009 8.009 0 0 1 -8-8v-176a8.009 8.009 0 0 1 8-8h160.506a7.977 7.977 0 0 1 6.145 2.878l30.406 36.487a23.937 23.937 0 0 0 18.437 8.635h104.506a8.009 8.009 0 0 1 8 8zm-8-424v272h-16v-272z" />
    <path d="m368 248v-192a8 8 0 0 0 -8-8h-240a8 8 0 0 0 -8 8v192a8 8 0 0 0 8 8h240a8 8 0 0 0 8-8zm-16-8h-224v-176h224z" />
    <path d="m344 400h-16a8 8 0 0 0 0 16h8v16h-32v-48h32a8 8 0 0 0 0-16h-40a8 8 0 0 0 -8 8v64a8 8 0 0 0 8 8h48a8 8 0 0 0 8-8v-32a8 8 0 0 0 -8-8z" />
    <path d="m200 384a8 8 0 0 0 0-16h-32a8 8 0 0 0 -8 8v32a8 8 0 0 0 8 8h24v16h-24a8 8 0 0 0 0 16h32a8 8 0 0 0 8-8v-32a8 8 0 0 0 -8-8h-24v-16z" />
    <path d="m265.94 368.239a8 8 0 0 0 -9.7 5.821l-8.24 32.956-8.239-32.956a8 8 0 1 0 -15.522 3.88l16 64a8 8 0 0 0 15.522 0l16-64a8 8 0 0 0 -5.821-9.701z" />
    <path d="m152 224h32a8 8 0 0 0 8-8v-8h96v8a8 8 0 0 0 8 8h32a8 8 0 0 0 8-8v-32a8 8 0 0 0 -8-8h-8v-48h8a8 8 0 0 0 8-8v-32a8 8 0 0 0 -8-8h-32a8 8 0 0 0 -8 8v8h-96v-8a8 8 0 0 0 -8-8h-32a8 8 0 0 0 -8 8v32a8 8 0 0 0 8 8h8v48h-8a8 8 0 0 0 -8 8v32a8 8 0 0 0 8 8zm168-16h-16v-16h16zm-16-112h16v16h-16zm-144 0h16v16h-16zm16 32h8a8 8 0 0 0 8-8v-8h96v8a8 8 0 0 0 8 8h8v48h-8a8 8 0 0 0 -8 8v8h-96v-8a8 8 0 0 0 -8-8h-8zm-16 64h16v16h-16z" />
</svg>